<svg version="1.2" xmlns="http://www.w3.org/2000/svg" viewBox="0 0 129 56" width="129" height="56">
	<title>Shape 28</title>
	<style>
		.s0 { fill: #fe3e57 } 
	</style>
	<path id="Shape 28" class="s0" d="m124.5 53.3c0-1 0.8-1.8 1.8-1.8 0.9 0 1.7 0.8 1.7 1.8 0 0.9-0.8 1.7-1.7 1.7-1 0-1.8-0.8-1.8-1.7zm-13.7 0c0-1 0.8-1.8 1.7-1.8 1 0 1.8 0.8 1.8 1.8 0 0.9-0.8 1.7-1.8 1.7-0.9 0-1.7-0.8-1.7-1.7zm-13.5 0c0-1 0.8-1.8 1.8-1.8 0.9 0 1.7 0.8 1.7 1.8 0 0.9-0.8 1.7-1.7 1.7-1 0-1.8-0.8-1.8-1.7zm-13.7 0c0-1 0.8-1.8 1.7-1.8 1 0 1.8 0.8 1.8 1.8 0 0.9-0.8 1.7-1.8 1.7-0.9 0-1.7-0.8-1.7-1.7zm-13.5 0c0-1 0.8-1.8 1.8-1.8 0.9 0 1.7 0.8 1.7 1.8 0 0.9-0.8 1.7-1.7 1.7-1 0-1.8-0.8-1.8-1.7zm-13.7 0c0-1 0.8-1.8 1.7-1.8 1 0 1.8 0.8 1.8 1.8 0 0.9-0.8 1.7-1.8 1.7-0.9 0-1.7-0.8-1.7-1.7zm-13.5 0c0-1 0.8-1.8 1.8-1.8 0.9 0 1.7 0.8 1.7 1.8 0 0.9-0.8 1.7-1.7 1.7-1 0-1.8-0.8-1.8-1.7zm-13.7 0c0-1 0.8-1.8 1.7-1.8 1 0 1.8 0.8 1.8 1.8 0 0.9-0.8 1.7-1.8 1.7-0.9 0-1.7-0.8-1.7-1.7zm-13.5 0c0-1 0.8-1.8 1.8-1.8 0.9 0 1.7 0.8 1.7 1.8 0 0.9-0.8 1.7-1.7 1.7-1 0-1.8-0.8-1.8-1.7zm-13.7 0c0-1 0.8-1.8 1.7-1.8 1 0 1.8 0.8 1.8 1.8 0 0.9-0.8 1.7-1.8 1.7-0.9 0-1.7-0.8-1.7-1.7zm122.5-16.5c0-1 0.8-1.8 1.8-1.8 0.9 0 1.7 0.8 1.7 1.8 0 0.9-0.8 1.7-1.7 1.7-1 0-1.8-0.8-1.8-1.7zm-13.7 0c0-1 0.8-1.8 1.7-1.8 1 0 1.8 0.8 1.8 1.8 0 0.9-0.8 1.7-1.8 1.7-0.9 0-1.7-0.8-1.7-1.7zm-13.5 0c0-1 0.8-1.8 1.8-1.8 0.9 0 1.7 0.8 1.7 1.8 0 0.9-0.8 1.7-1.7 1.7-1 0-1.8-0.8-1.8-1.7zm-13.7 0c0-1 0.8-1.8 1.7-1.8 1 0 1.8 0.8 1.8 1.8 0 0.9-0.8 1.7-1.8 1.7-0.9 0-1.7-0.8-1.7-1.7zm-13.5 0c0-1 0.8-1.8 1.8-1.8 0.9 0 1.7 0.8 1.7 1.8 0 0.9-0.8 1.7-1.7 1.7-1 0-1.8-0.8-1.8-1.7zm-13.7 0c0-1 0.8-1.8 1.7-1.8 1 0 1.8 0.8 1.8 1.8 0 0.9-0.8 1.7-1.8 1.7-0.9 0-1.7-0.8-1.7-1.7zm-13.5 0c0-1 0.8-1.8 1.8-1.8 0.9 0 1.7 0.8 1.7 1.8 0 0.9-0.8 1.7-1.7 1.7-1 0-1.8-0.8-1.8-1.7zm-13.7 0c0-1 0.8-1.8 1.7-1.8 1 0 1.8 0.8 1.8 1.8 0 0.9-0.8 1.7-1.8 1.7-0.9 0-1.7-0.8-1.7-1.7zm-13.5 0c0-1 0.8-1.8 1.8-1.8 0.9 0 1.7 0.8 1.7 1.8 0 0.9-0.8 1.7-1.7 1.7-1 0-1.8-0.8-1.8-1.7zm-13.7 0c0-1 0.8-1.8 1.7-1.8 1 0 1.8 0.8 1.8 1.8 0 0.9-0.8 1.7-1.8 1.7-0.9 0-1.7-0.8-1.7-1.7zm122.5-16.6c0-0.9 0.8-1.7 1.8-1.7 0.9 0 1.7 0.8 1.7 1.7 0 1-0.8 1.8-1.7 1.8-1 0-1.8-0.8-1.8-1.8zm-13.7 0c0-0.9 0.8-1.7 1.7-1.7 1 0 1.8 0.8 1.8 1.7 0 1-0.8 1.8-1.8 1.8-0.9 0-1.7-0.8-1.7-1.8zm-13.5 0c0-0.9 0.8-1.7 1.8-1.7 0.9 0 1.7 0.8 1.7 1.7 0 1-0.8 1.8-1.7 1.8-1 0-1.8-0.8-1.8-1.8zm-13.7 0c0-0.9 0.8-1.7 1.7-1.7 1 0 1.8 0.8 1.8 1.7 0 1-0.8 1.8-1.8 1.8-0.9 0-1.7-0.8-1.7-1.8zm-13.5 0c0-0.9 0.8-1.7 1.8-1.7 0.9 0 1.7 0.8 1.7 1.7 0 1-0.8 1.8-1.7 1.8-1 0-1.8-0.8-1.8-1.8zm-13.7 0c0-0.9 0.8-1.7 1.7-1.7 1 0 1.8 0.8 1.8 1.7 0 1-0.8 1.8-1.8 1.8-0.9 0-1.7-0.8-1.7-1.8zm-13.5 0c0-0.9 0.8-1.7 1.8-1.7 0.9 0 1.7 0.8 1.7 1.7 0 1-0.8 1.8-1.7 1.8-1 0-1.8-0.8-1.8-1.8zm-13.7 0c0-0.9 0.8-1.7 1.7-1.7 1 0 1.8 0.8 1.8 1.7 0 1-0.8 1.8-1.8 1.8-0.9 0-1.7-0.8-1.7-1.8zm-13.5 0c0-0.9 0.8-1.7 1.8-1.7 0.9 0 1.7 0.8 1.7 1.7 0 1-0.8 1.8-1.7 1.8-1 0-1.8-0.8-1.8-1.8zm-13.7 0c0-0.9 0.8-1.7 1.7-1.7 1 0 1.8 0.8 1.8 1.7 0 1-0.8 1.8-1.8 1.8-0.9 0-1.7-0.8-1.7-1.8zm122.5-16.5c0-0.9 0.8-1.7 1.8-1.7 0.9 0 1.7 0.8 1.7 1.7 0 1-0.8 1.8-1.7 1.8-1 0-1.8-0.8-1.8-1.8zm-13.7 0c0-0.9 0.8-1.7 1.7-1.7 1 0 1.8 0.8 1.8 1.7 0 1-0.8 1.8-1.8 1.8-0.9 0-1.7-0.8-1.7-1.8zm-13.5 0c0-0.9 0.8-1.7 1.8-1.7 0.9 0 1.7 0.8 1.7 1.7 0 1-0.8 1.8-1.7 1.8-1 0-1.8-0.8-1.8-1.8zm-13.7 0c0-0.9 0.8-1.7 1.7-1.7 1 0 1.8 0.8 1.8 1.7 0 1-0.8 1.8-1.8 1.8-0.9 0-1.7-0.8-1.7-1.8zm-13.5 0c0-0.9 0.8-1.7 1.8-1.7 0.9 0 1.7 0.8 1.7 1.7 0 1-0.8 1.8-1.7 1.8-1 0-1.8-0.8-1.8-1.8zm-13.7 0c0-0.9 0.8-1.7 1.7-1.7 1 0 1.8 0.8 1.8 1.7 0 1-0.8 1.8-1.8 1.8-0.9 0-1.7-0.8-1.7-1.8zm-13.5 0c0-0.9 0.8-1.7 1.8-1.7 0.9 0 1.7 0.8 1.7 1.7 0 1-0.8 1.8-1.7 1.8-1 0-1.8-0.8-1.8-1.8zm-13.7 0c0-0.9 0.8-1.7 1.7-1.7 1 0 1.8 0.8 1.8 1.7 0 1-0.8 1.8-1.8 1.8-0.9 0-1.7-0.8-1.7-1.8zm-13.5 0c0-0.9 0.8-1.7 1.8-1.7 0.9 0 1.7 0.8 1.7 1.7 0 1-0.8 1.8-1.7 1.8-1 0-1.8-0.8-1.8-1.8zm-13.7 0c0-0.9 0.8-1.7 1.7-1.7 1 0 1.8 0.8 1.8 1.7 0 1-0.8 1.8-1.8 1.8-0.9 0-1.7-0.8-1.7-1.8z"/>
</svg>