<svg version="1.2" xmlns="http://www.w3.org/2000/svg" viewBox="0 0 67 54" width="67" height="54">
	<title>Shape_2</title>
	<style>
		.s0 { fill: #fe3e57 } 
	</style>
	<path id="Shape_2" class="s0" d="m2.7 1c1 0 1.8 0.8 1.8 1.7 0 1-0.8 1.8-1.8 1.8-0.9 0-1.7-0.8-1.7-1.8 0-0.9 0.8-1.7 1.7-1.7zm12.3 0c1 0 1.8 0.8 1.8 1.7 0 1-0.8 1.8-1.8 1.8-0.9 0-1.7-0.8-1.7-1.8 0-0.9 0.8-1.7 1.7-1.7zm12.3 0c1 0 1.8 0.8 1.8 1.7 0 1-0.8 1.8-1.8 1.8-0.9 0-1.7-0.8-1.7-1.8 0-0.9 0.8-1.7 1.7-1.7zm12.4 0c0.9 0 1.7 0.8 1.7 1.7 0 1-0.8 1.8-1.7 1.8-1 0-1.8-0.8-1.8-1.8 0-0.9 0.8-1.7 1.8-1.7zm12.3 0c0.9 0 1.7 0.8 1.7 1.7 0 1-0.8 1.8-1.7 1.8-1 0-1.8-0.8-1.8-1.8 0-0.9 0.8-1.7 1.8-1.7zm12.2 0c1 0 1.8 0.8 1.8 1.7 0 1-0.8 1.8-1.8 1.8-0.9 0-1.7-0.8-1.7-1.8 0-0.9 0.8-1.7 1.7-1.7zm-61.5 12.1c1 0 1.8 0.8 1.8 1.8 0 0.9-0.8 1.7-1.8 1.7-0.9 0-1.7-0.8-1.7-1.7 0-1 0.8-1.8 1.7-1.8zm12.3 0c1 0 1.8 0.8 1.8 1.8 0 0.9-0.8 1.7-1.8 1.7-0.9 0-1.7-0.8-1.7-1.7 0-1 0.8-1.8 1.7-1.8zm12.3 0c1 0 1.8 0.8 1.8 1.8 0 0.9-0.8 1.7-1.8 1.7-0.9 0-1.7-0.8-1.7-1.7 0-1 0.8-1.8 1.7-1.8zm12.4 0c0.9 0 1.7 0.8 1.7 1.8 0 0.9-0.8 1.7-1.7 1.7-1 0-1.8-0.8-1.8-1.7 0-1 0.8-1.8 1.8-1.8zm12.3 0c0.9 0 1.7 0.8 1.7 1.8 0 0.9-0.8 1.7-1.7 1.7-1 0-1.8-0.8-1.8-1.7 0-1 0.8-1.8 1.8-1.8zm12.2 0c1 0 1.8 0.8 1.8 1.8 0 0.9-0.8 1.7-1.8 1.7-0.9 0-1.7-0.8-1.7-1.7 0-1 0.8-1.8 1.7-1.8zm-61.5 12.2c1 0 1.8 0.8 1.8 1.7 0 0.9-0.8 1.7-1.8 1.7-0.9 0-1.7-0.8-1.7-1.7 0-0.9 0.8-1.7 1.7-1.7zm12.3 0c1 0 1.8 0.8 1.8 1.7 0 0.9-0.8 1.7-1.8 1.7-0.9 0-1.7-0.8-1.7-1.7 0-0.9 0.8-1.7 1.7-1.7zm12.3 0c1 0 1.8 0.8 1.8 1.7 0 0.9-0.8 1.7-1.8 1.7-0.9 0-1.7-0.8-1.7-1.7 0-0.9 0.8-1.7 1.7-1.7zm12.4 0c0.9 0 1.7 0.8 1.7 1.7 0 0.9-0.8 1.7-1.7 1.7-1 0-1.8-0.8-1.8-1.7 0-0.9 0.8-1.7 1.8-1.7zm12.3 0c0.9 0 1.7 0.8 1.7 1.7 0 0.9-0.8 1.7-1.7 1.7-1 0-1.8-0.8-1.8-1.7 0-0.9 0.8-1.7 1.8-1.7zm12.2 0c1 0 1.8 0.8 1.8 1.7 0 0.9-0.8 1.7-1.8 1.7-0.9 0-1.7-0.8-1.7-1.7 0-0.9 0.8-1.7 1.7-1.7zm-61.5 12.1c1 0 1.8 0.8 1.8 1.7 0 1-0.8 1.8-1.8 1.8-0.9 0-1.7-0.8-1.7-1.8 0-0.9 0.8-1.7 1.7-1.7zm12.3 0c1 0 1.8 0.8 1.8 1.7 0 1-0.8 1.8-1.8 1.8-0.9 0-1.7-0.8-1.7-1.8 0-0.9 0.8-1.7 1.7-1.7zm12.3 0c1 0 1.8 0.8 1.8 1.7 0 1-0.8 1.8-1.8 1.8-0.9 0-1.7-0.8-1.7-1.8 0-0.9 0.8-1.7 1.7-1.7zm12.4 0c0.9 0 1.7 0.8 1.7 1.7 0 1-0.8 1.8-1.7 1.8-1 0-1.8-0.8-1.8-1.8 0-0.9 0.8-1.7 1.8-1.7zm12.3 0c0.9 0 1.7 0.8 1.7 1.7 0 1-0.8 1.8-1.7 1.8-1 0-1.8-0.8-1.8-1.8 0-0.9 0.8-1.7 1.8-1.7zm12.2 0c1 0 1.8 0.8 1.8 1.7 0 1-0.8 1.8-1.8 1.8-0.9 0-1.7-0.8-1.7-1.8 0-0.9 0.8-1.7 1.7-1.7zm-61.5 12.1c1 0 1.8 0.8 1.8 1.8 0 0.9-0.8 1.7-1.8 1.7-0.9 0-1.7-0.8-1.7-1.7 0-1 0.8-1.8 1.7-1.8zm12.3 0c1 0 1.8 0.8 1.8 1.8 0 0.9-0.8 1.7-1.8 1.7-0.9 0-1.7-0.8-1.7-1.7 0-1 0.8-1.8 1.7-1.8zm12.3 0c1 0 1.8 0.8 1.8 1.8 0 0.9-0.8 1.7-1.8 1.7-0.9 0-1.7-0.8-1.7-1.7 0-1 0.8-1.8 1.7-1.8zm12.4 0c0.9 0 1.7 0.8 1.7 1.8 0 0.9-0.8 1.7-1.7 1.7-1 0-1.8-0.8-1.8-1.7 0-1 0.8-1.8 1.8-1.8zm12.3 0c0.9 0 1.7 0.8 1.7 1.8 0 0.9-0.8 1.7-1.7 1.7-1 0-1.8-0.8-1.8-1.7 0-1 0.8-1.8 1.8-1.8zm12.2 0c1 0 1.8 0.8 1.8 1.8 0 0.9-0.8 1.7-1.8 1.7-0.9 0-1.7-0.8-1.7-1.7 0-1 0.8-1.8 1.7-1.8z"/>
</svg>