<?xml version="1.0" encoding="UTF-8"?>
<svg xmlns="http://www.w3.org/2000/svg" xmlns:xlink="http://www.w3.org/1999/xlink" width="18px" height="16px" viewBox="0 0 18 16" version="1.1">
<g id="surface1">
<path style=" stroke:none;fill-rule:nonzero;fill:rgb(0%,0%,0%);fill-opacity:1;" d="M 8.492188 1.949219 C 8.585938 1.777344 8.785156 1.667969 9 1.667969 C 9.214844 1.667969 9.414062 1.777344 9.507812 1.949219 C 10.238281 3.28125 11.496094 5.574219 11.496094 5.574219 C 11.496094 5.574219 14.355469 5.925781 16.011719 6.128906 C 16.316406 6.164062 16.5 6.390625 16.5 6.625 C 16.5 6.753906 16.445312 6.882812 16.328125 6.984375 C 15.121094 8.007812 13.039062 9.777344 13.039062 9.777344 C 13.039062 9.777344 13.546875 12.289062 13.84375 13.746094 C 13.902344 14.054688 13.636719 14.332031 13.285156 14.332031 C 13.195312 14.332031 13.101562 14.3125 13.019531 14.273438 C 11.542969 13.574219 9 12.375 9 12.375 C 9 12.375 6.457031 13.574219 4.980469 14.273438 C 4.898438 14.3125 4.804688 14.332031 4.714844 14.332031 C 4.363281 14.332031 4.09375 14.050781 4.15625 13.746094 C 4.453125 12.289062 4.960938 9.777344 4.960938 9.777344 C 4.960938 9.777344 2.878906 8.007812 1.675781 6.984375 C 1.554688 6.882812 1.5 6.753906 1.5 6.625 C 1.5 6.390625 1.6875 6.164062 1.988281 6.128906 C 3.648438 5.925781 6.503906 5.574219 6.503906 5.574219 C 6.503906 5.574219 7.761719 3.28125 8.492188 1.949219 Z M 8.492188 1.949219 "/>
</g>
</svg>
