<svg version="1.2" xmlns="http://www.w3.org/2000/svg" viewBox="0 0 132 132" width="132" height="132">
	<title>play btn</title>
	<style>
		.s0 { opacity: .2;fill: #fe3e57 } 
		.s1 { opacity: .6;fill: #fe3e57 } 
		.s2 { fill: #fe3e57 } 
		.s3 { fill: #ffffff } 
	</style>
	<g id="play btn">
		<path id="Ellipse 7 copy 2" class="s0" d="m66 1c35.9 0 65 29.1 65 65 0 35.9-29.1 65-65 65-35.9 0-65-29.1-65-65 0-35.9 29.1-65 65-65z"/>
		<path id="Ellipse 7 copy" class="s1" d="m66 11c30.4 0 55 24.6 55 55 0 30.4-24.6 55-55 55-30.4 0-55-24.6-55-55 0-30.4 24.6-55 55-55z"/>
		<path id="Ellipse 7" class="s2" d="m66 21c24.9 0 45 20.1 45 45 0 24.9-20.1 45-45 45-24.9 0-45-20.1-45-45 0-24.9 20.1-45 45-45z"/>
		<path id="Shape 23" class="s3" d="m72.8 64.1l-11.8-7.6c-0.6-0.3-1.1-0.5-1.6-0.5-0.8 0-1.4 0.7-1.4 1.8v16.4c0 1.1 0.6 1.8 1.4 1.8 0.5 0 1-0.2 1.6-0.5l11.8-7.6c0.8-0.5 1.2-1.2 1.2-1.9 0-0.7-0.4-1.4-1.2-1.9"/>
	</g>
</svg>